<?xml version="1.0" standalone="no"?>
<!DOCTYPE svg PUBLIC "-//W3C//DTD SVG 20010904//EN"
 "http://www.w3.org/TR/2001/REC-SVG-20010904/DTD/svg10.dtd">
<svg version="1.0" xmlns="http://www.w3.org/2000/svg"
 width="2400.000000pt" height="2400.000000pt" viewBox="0 0 2400.000000 2400.000000"
 preserveAspectRatio="xMidYMid meet">
<metadata>
Created by potrace 1.14, written by Peter Selinger 2001-2017
</metadata>
<g transform="translate(0.000000,2400.000000) scale(0.100000,-0.100000)"
fill="#000000" stroke="none">
<path d="M13180 17663 c-25 -8 -47 -18 -50 -22 -3 -3 -18 -13 -34 -22 -35 -20
-137 -107 -159 -136 -18 -23 -17 3 -32 -1313 -2 -245 -7 -665 -10 -935 -3
-269 -8 -661 -10 -870 -2 -209 -5 -433 -6 -497 0 -65 -3 -118 -5 -118 -1 0
-61 87 -133 193 -71 105 -154 226 -185 267 -30 41 -65 90 -78 108 -55 78 -247
325 -375 482 -171 210 -493 548 -693 726 -30 27 -57 52 -60 55 -3 3 -64 53
-137 111 -210 168 -499 364 -708 478 -27 15 -84 47 -125 70 -269 154 -802 396
-1253 570 -354 135 -366 139 -577 156 -41 3 -93 7 -115 9 -280 26 -960 26
-1240 0 -27 -3 -75 -7 -105 -10 -30 -2 -71 -6 -90 -9 -19 -3 -58 -7 -87 -10
-46 -5 -265 -37 -353 -52 -19 -3 -66 -12 -105 -21 -38 -8 -83 -17 -100 -20
-173 -28 -689 -184 -870 -262 -11 -5 -72 -30 -135 -57 -313 -130 -700 -352
-985 -563 -218 -162 -524 -442 -701 -641 -155 -175 -284 -343 -413 -538 -44
-67 -81 -124 -81 -126 0 -1 -24 -43 -54 -92 -149 -248 -300 -585 -406 -904
-59 -177 -123 -394 -136 -464 -2 -12 -13 -61 -24 -111 -45 -203 -90 -487 -105
-665 -3 -36 -8 -74 -10 -85 -25 -123 -26 -970 0 -1104 1 -9 6 -52 10 -96 3
-43 8 -82 10 -85 1 -3 6 -32 9 -65 7 -57 9 -71 20 -140 23 -139 32 -186 57
-300 159 -708 415 -1309 823 -1930 92 -140 351 -496 375 -515 3 -3 46 -52 96
-110 49 -58 99 -114 110 -126 11 -12 43 -45 71 -75 121 -127 311 -305 451
-421 167 -138 516 -388 543 -388 5 0 10 -4 10 -8 0 -5 15 -16 33 -25 17 -9 52
-29 77 -43 296 -177 654 -339 1004 -456 115 -38 216 -71 225 -74 17 -4 49 -12
146 -39 33 -10 67 -18 75 -20 8 -2 42 -10 75 -18 169 -44 493 -99 705 -121
149 -16 288 -21 530 -21 293 0 455 10 660 39 44 6 124 18 145 22 10 2 37 6 60
9 22 4 56 10 75 15 19 5 49 12 65 14 151 27 407 99 629 175 622 216 1308 612
1896 1097 69 56 141 118 161 136 20 18 76 69 125 113 420 382 885 931 1258
1485 l37 55 -6 -245 c-3 -135 -8 -326 -10 -425 -2 -99 -7 -297 -10 -440 -3
-143 -8 -339 -11 -435 -13 -487 7 -1123 41 -1298 2 -10 6 -45 10 -77 4 -33 9
-69 11 -80 2 -11 6 -32 9 -47 5 -25 29 -136 40 -183 12 -49 49 -154 75 -212
34 -74 36 -75 186 -42 234 50 417 177 537 371 25 40 53 93 63 118 9 25 21 50
25 55 7 9 55 180 64 227 25 130 37 276 37 443 -1 176 -5 216 -57 585 -2 14 -7
52 -11 85 -3 33 -8 62 -9 65 -2 3 -6 33 -10 65 -3 33 -8 70 -11 83 -2 12 -7
44 -10 70 -3 26 -7 58 -9 72 -2 14 -7 48 -10 75 -7 55 -12 84 -19 130 -2 17
-7 53 -11 80 -12 97 -14 111 -29 210 -8 55 -18 123 -21 150 -4 28 -8 57 -10
65 -2 8 -7 41 -10 73 -4 32 -8 66 -10 75 -2 10 -6 45 -10 77 -4 33 -8 71 -11
84 -2 14 -6 54 -10 90 -3 36 -7 79 -9 96 -8 60 -17 224 -19 347 l-3 128 26 -6
c14 -4 64 -18 111 -31 47 -14 193 -56 325 -95 132 -38 263 -76 290 -83 233
-63 685 -206 1030 -327 177 -62 555 -202 590 -218 11 -5 79 -33 150 -61 72
-28 150 -59 175 -69 56 -22 296 -123 342 -143 18 -8 71 -32 118 -53 47 -20
118 -52 158 -70 41 -19 75 -34 77 -34 2 0 61 -27 130 -60 69 -33 128 -60 131
-60 8 0 701 -345 809 -403 55 -29 177 -93 270 -142 94 -48 175 -91 180 -95 6
-4 78 -42 160 -85 83 -43 182 -95 220 -115 79 -42 203 -108 380 -200 66 -34
143 -75 170 -90 28 -15 93 -50 145 -77 87 -46 287 -153 450 -241 256 -139 931
-479 1100 -556 120 -54 179 -80 221 -99 l37 -16 12 47 c16 61 21 230 8 279
-31 115 -44 154 -74 214 -109 219 -337 463 -647 693 -116 86 -316 224 -369
254 -17 9 -38 22 -47 27 -58 37 -254 152 -291 172 -25 13 -76 42 -115 64 -110
62 -562 287 -760 379 -157 72 -231 105 -410 184 -22 10 -58 26 -80 36 -348
160 -1281 519 -1755 677 -58 19 -114 39 -125 43 -25 11 -461 153 -655 214
-254 79 -889 267 -950 281 -8 2 -82 22 -165 45 -82 23 -158 43 -167 45 -10 2
-62 16 -115 31 -222 60 -682 176 -738 186 -52 8 -298 93 -345 118 -14 7 -16
41 -19 257 -2 136 -5 325 -6 418 -2 94 -6 461 -9 816 -5 514 -4 648 6 656 7 5
38 20 68 33 47 21 449 259 755 448 50 30 104 63 120 72 43 25 543 328 585 355
35 22 578 351 845 512 77 47 181 109 230 140 50 30 104 63 120 73 17 9 136 82
265 160 129 79 296 179 370 224 74 45 137 84 138 89 2 4 7 7 12 7 4 0 189 106
411 237 222 130 418 244 435 254 17 9 62 36 99 58 37 23 69 41 71 41 2 0 43
24 91 53 48 29 95 56 103 60 8 4 29 16 45 26 17 10 203 120 415 243 212 124
446 261 520 305 75 43 142 82 150 86 8 4 29 16 45 27 17 11 48 30 70 42 22 12
48 27 58 33 648 379 894 523 917 536 66 36 80 50 80 75 0 105 -68 196 -176
234 -58 20 -87 24 -189 24 -134 0 -166 -3 -312 -33 -325 -67 -861 -263 -1413
-518 -30 -14 -95 -44 -145 -67 -326 -149 -1228 -613 -1820 -936 -399 -217
-1105 -616 -1348 -761 -54 -33 -100 -59 -102 -59 -10 0 -1334 -876 -1345 -889
-3 -4 -34 -31 -70 -61 -35 -30 -73 -63 -84 -72 -11 -10 -21 -16 -23 -15 -6 7
-4 1222 3 1747 11 858 9 1060 -11 1270 -2 19 -6 69 -9 110 -4 41 -9 91 -11
110 -3 19 -7 59 -11 88 -3 29 -7 63 -10 75 -2 12 -11 65 -19 117 -32 196 -95
394 -162 508 -31 54 -92 115 -137 136 -43 20 -127 20 -186 -1z m-4440 -1536
c19 -3 76 -7 125 -11 50 -4 97 -9 105 -11 8 -2 44 -7 80 -10 58 -5 112 -12
235 -31 80 -12 102 -16 220 -39 892 -178 1565 -562 1980 -1131 299 -408 545
-1003 715 -1724 17 -74 38 -162 46 -195 18 -80 64 -321 69 -367 4 -41 5 -40
-117 -107 -32 -17 -82 -44 -110 -60 -29 -15 -96 -51 -148 -79 -52 -28 -133
-72 -180 -97 -93 -50 -726 -365 -734 -365 -4 0 -66 -28 -191 -85 -242 -112
-668 -295 -865 -372 -290 -113 -550 -198 -748 -244 l-102 -24 -1 -35 c-2 -127
0 -412 3 -415 2 -2 30 -6 63 -10 33 -3 74 -8 90 -10 17 -2 62 -7 100 -10 39
-3 81 -8 95 -10 14 -3 54 -7 90 -10 36 -3 81 -8 100 -10 19 -3 53 -7 75 -10
22 -3 65 -7 95 -10 30 -2 71 -6 90 -9 19 -3 62 -8 95 -11 33 -3 74 -8 90 -10
17 -2 61 -7 98 -10 37 -4 76 -8 85 -9 9 -2 49 -7 87 -10 39 -4 86 -9 105 -11
19 -2 62 -7 95 -10 33 -3 78 -7 100 -10 22 -2 60 -7 85 -10 234 -26 220 -24
350 -58 52 -14 203 -53 335 -87 132 -34 310 -80 395 -102 85 -22 175 -41 200
-42 41 -1 45 -3 42 -25 -4 -42 -66 -162 -195 -376 -247 -414 -478 -735 -747
-1040 -47 -53 -355 -361 -405 -405 -433 -379 -863 -620 -1433 -804 -78 -25
-152 -48 -165 -50 -12 -3 -74 -19 -137 -36 -129 -34 -477 -105 -559 -114 -29
-4 -56 -8 -60 -10 -3 -2 -36 -7 -74 -10 -37 -4 -73 -9 -80 -11 -18 -6 -283
-33 -492 -50 -209 -17 -717 -26 -765 -14 -205 54 -613 184 -715 229 -11 5 -60
25 -110 45 -700 282 -1274 670 -1738 1176 -523 568 -931 1402 -1062 2169 -26
155 -44 304 -53 445 -13 212 -6 619 13 770 17 140 23 179 37 265 5 36 12 81
15 100 3 19 14 78 25 130 11 52 21 105 24 118 27 133 181 665 214 737 5 11 30
76 56 145 25 69 52 139 59 155 8 17 26 59 41 95 14 36 42 98 60 138 19 41 34
77 34 82 0 19 148 186 305 344 337 338 717 627 1135 860 47 26 92 52 100 57
15 9 385 191 425 209 444 198 986 369 1435 455 109 21 131 25 170 30 19 3 49
7 65 10 70 11 258 34 320 40 28 2 102 7 165 11 63 3 116 8 118 9 4 4 593 -4
632 -8z m3604 -4374 c-6 -182 -15 -383 -19 -418 -2 -22 -6 -71 -10 -110 -3
-38 -8 -81 -10 -95 -11 -73 -16 -109 -20 -142 -10 -89 -17 -109 -34 -103 -9 4
-113 42 -231 86 -118 44 -224 84 -235 89 -11 5 -109 42 -217 82 -109 40 -198
76 -198 79 0 3 163 103 363 223 199 120 391 236 426 257 34 21 67 39 72 39 5
0 9 5 9 10 0 6 6 10 13 10 7 0 28 11 47 25 19 14 37 25 40 25 3 0 5 -26 4 -57z"/>
<path d="M21019 15128 c-113 -84 -217 -161 -230 -171 -13 -9 -100 -74 -194
-144 -93 -70 -186 -138 -206 -152 -20 -14 -74 -54 -120 -88 -46 -35 -95 -71
-108 -80 -13 -10 -106 -79 -205 -153 -225 -167 -330 -245 -871 -645 -236 -175
-518 -384 -625 -463 -107 -80 -260 -193 -340 -253 -134 -99 -378 -279 -425
-313 -11 -8 -146 -109 -300 -223 -334 -248 -1044 -775 -1298 -962 -100 -74
-194 -144 -209 -157 l-28 -22 443 -220 c621 -308 1460 -724 2152 -1067 325
-161 919 -456 1320 -655 1093 -542 1430 -708 1445 -712 11 -2 13 544 14 3300
1 1816 -1 3309 -4 3318 -4 10 -62 -27 -211 -138z"/>
</g>
</svg>
